<svg width="914" height="621" xmlns="http://www.w3.org/2000/svg">
 <!-- Created with Method Draw - http://github.com/duopixel/Method-Draw/ -->
 <g>
  <title>background</title>
  <rect fill="none" id="canvas_background" height="623" width="916" y="-1" x="-1"/>
  <g display="none" overflow="visible" y="0" x="0" height="100%" width="100%" id="canvasGrid">
   <rect fill="url(#gridpattern)" stroke-width="0" y="0" x="0" height="100%" width="100%"/>
  </g>
 </g>
 <g>
  <title>Layer 1</title>
  <ellipse stroke="#000" ry="4" rx="4" id="svg_75" cy="610.272762" cx="902.727278" stroke-opacity="null" stroke-width="0" fill="#d3d1ff"/>
  <ellipse stroke="#000" ry="4" rx="4" id="svg_76" cy="610.272762" cx="822.272733" stroke-opacity="null" stroke-width="0" fill="#d3d1ff"/>
  <ellipse stroke="#000" ry="4" rx="4" id="svg_77" cy="610.702075" cx="842.727278" stroke-opacity="null" stroke-width="0" fill="#d3d1ff"/>
  <ellipse stroke="#000" ry="4" rx="4" id="svg_78" cy="610.272762" cx="882.727278" stroke-opacity="null" stroke-width="0" fill="#d3d1ff"/>
  <ellipse stroke="#000" ry="4" rx="4" id="svg_79" cy="610.272762" cx="862.727278" stroke-opacity="null" stroke-width="0" fill="#d3d1ff"/>
  <ellipse stroke="#000" ry="4" rx="4" id="svg_80" cy="610.272762" cx="642.727279" stroke-opacity="null" stroke-width="0" fill="#d3d1ff"/>
  <ellipse stroke="#000" ry="4" rx="4" id="svg_81" cy="610.272762" cx="662.727279" stroke-opacity="null" stroke-width="0" fill="#d3d1ff"/>
  <ellipse stroke="#000" ry="4" rx="4" id="svg_82" cy="610.272762" cx="702.727279" stroke-opacity="null" stroke-width="0" fill="#d3d1ff"/>
  <ellipse stroke="#000" ry="4" rx="4" id="svg_83" cy="610.272762" cx="682.727279" stroke-opacity="null" stroke-width="0" fill="#d3d1ff"/>
  <ellipse stroke="#000" ry="4" rx="4" id="svg_84" cy="610.272762" cx="562.727279" stroke-opacity="null" stroke-width="0" fill="#d3d1ff"/>
  <ellipse stroke="#000" ry="4" rx="4" id="svg_85" cy="610.702076" cx="582.727279" stroke-opacity="null" stroke-width="0" fill="#d3d1ff"/>
  <ellipse stroke="#000" ry="4" rx="4" id="svg_86" cy="610.272762" cx="622.727279" stroke-opacity="null" stroke-width="0" fill="#d3d1ff"/>
  <ellipse stroke="#000" ry="4" rx="4" id="svg_87" cy="610.272762" cx="602.727279" stroke-opacity="null" stroke-width="0" fill="#d3d1ff"/>
  <ellipse stroke="#000" ry="4" rx="4" id="svg_101" cy="610.272762" cx="802.727279" stroke-opacity="null" stroke-width="0" fill="#d3d1ff"/>
  <ellipse stroke="#000" ry="4" rx="4" id="svg_102" cy="610.272762" cx="722.727279" stroke-opacity="null" stroke-width="0" fill="#d3d1ff"/>
  <ellipse stroke="#000" ry="4" rx="4" id="svg_103" cy="610.702075" cx="742.727279" stroke-opacity="null" stroke-width="0" fill="#d3d1ff"/>
  <ellipse stroke="#000" ry="4" rx="4" id="svg_104" cy="610.272762" cx="782.727279" stroke-opacity="null" stroke-width="0" fill="#d3d1ff"/>
  <ellipse stroke="#000" ry="4" rx="4" id="svg_105" cy="610.272762" cx="762.727279" stroke-opacity="null" stroke-width="0" fill="#d3d1ff"/>
  <ellipse stroke="#000" ry="4" rx="4" id="svg_106" cy="546.636398" cx="902.727279" stroke-opacity="null" stroke-width="0" fill="#d3d1ff"/>
  <ellipse stroke="#000" ry="4" rx="4" id="svg_107" cy="546.636398" cx="822.272734" stroke-opacity="null" stroke-width="0" fill="#d3d1ff"/>
  <ellipse stroke="#000" ry="4" rx="4" id="svg_108" cy="546.15662" cx="842.727279" stroke-opacity="null" stroke-width="0" fill="#d3d1ff"/>
  <ellipse stroke="#000" ry="4" rx="4" id="svg_109" cy="546.636398" cx="882.727279" stroke-opacity="null" stroke-width="0" fill="#d3d1ff"/>
  <ellipse stroke="#000" ry="4" rx="4" id="svg_110" cy="546.636398" cx="862.727279" stroke-opacity="null" stroke-width="0" fill="#d3d1ff"/>
  <ellipse stroke="#000" ry="4" rx="4" id="svg_111" cy="546.636398" cx="642.72728" stroke-opacity="null" stroke-width="0" fill="#d3d1ff"/>
  <ellipse stroke="#000" ry="4" rx="4" id="svg_112" cy="546.636398" cx="662.72728" stroke-opacity="null" stroke-width="0" fill="#d3d1ff"/>
  <ellipse stroke="#000" ry="4" rx="4" id="svg_113" cy="546.636398" cx="702.72728" stroke-opacity="null" stroke-width="0" fill="#d3d1ff"/>
  <ellipse stroke="#000" ry="4" rx="4" id="svg_114" cy="546.636398" cx="682.72728" stroke-opacity="null" stroke-width="0" fill="#d3d1ff"/>
  <ellipse stroke="#000" ry="4" rx="4" id="svg_115" cy="546.636398" cx="562.72728" stroke-opacity="null" stroke-width="0" fill="#d3d1ff"/>
  <ellipse stroke="#000" ry="4" rx="4" id="svg_116" cy="547.065712" cx="582.72728" stroke-opacity="null" stroke-width="0" fill="#d3d1ff"/>
  <ellipse stroke="#000" ry="4" rx="4" id="svg_117" cy="546.636398" cx="622.72728" stroke-opacity="null" stroke-width="0" fill="#d3d1ff"/>
  <ellipse stroke="#000" ry="4" rx="4" id="svg_118" cy="546.636398" cx="602.72728" stroke-opacity="null" stroke-width="0" fill="#d3d1ff"/>
  <ellipse stroke="#000" ry="4" rx="4" id="svg_119" cy="546.636398" cx="802.72728" stroke-opacity="null" stroke-width="0" fill="#d3d1ff"/>
  <ellipse stroke="#000" ry="4" rx="4" id="svg_120" cy="546.636398" cx="722.72728" stroke-opacity="null" stroke-width="0" fill="#d3d1ff"/>
  <ellipse stroke="#000" ry="4" rx="4" id="svg_121" cy="546.15662" cx="742.72728" stroke-opacity="null" stroke-width="0" fill="#d3d1ff"/>
  <ellipse stroke="#000" ry="4" rx="4" id="svg_122" cy="546.636398" cx="782.72728" stroke-opacity="null" stroke-width="0" fill="#d3d1ff"/>
  <ellipse stroke="#000" ry="4" rx="4" id="svg_123" cy="546.636398" cx="762.72728" stroke-opacity="null" stroke-width="0" fill="#d3d1ff"/>
  <ellipse stroke="#000" ry="4" rx="4" id="svg_124" cy="578.45458" cx="902.727278" stroke-opacity="null" stroke-width="0" fill="#d3d1ff"/>
  <ellipse stroke="#000" ry="4" rx="4" id="svg_125" cy="578.45458" cx="822.272733" stroke-opacity="null" stroke-width="0" fill="#d3d1ff"/>
  <ellipse stroke="#000" ry="4" rx="4" id="svg_126" cy="578.883893" cx="842.727278" stroke-opacity="null" stroke-width="0" fill="#d3d1ff"/>
  <ellipse stroke="#000" ry="4" rx="4" id="svg_127" cy="578.45458" cx="882.727278" stroke-opacity="null" stroke-width="0" fill="#d3d1ff"/>
  <ellipse stroke="#000" ry="4" rx="4" id="svg_128" cy="578.45458" cx="862.727278" stroke-opacity="null" stroke-width="0" fill="#d3d1ff"/>
  <ellipse stroke="#000" ry="4" rx="4" id="svg_129" cy="578.45458" cx="642.727279" stroke-opacity="null" stroke-width="0" fill="#d3d1ff"/>
  <ellipse stroke="#000" ry="4" rx="4" id="svg_130" cy="578.45458" cx="662.727279" stroke-opacity="null" stroke-width="0" fill="#d3d1ff"/>
  <ellipse stroke="#000" ry="4" rx="4" id="svg_131" cy="578.45458" cx="702.727279" stroke-opacity="null" stroke-width="0" fill="#d3d1ff"/>
  <ellipse stroke="#000" ry="4" rx="4" id="svg_132" cy="578.45458" cx="682.727279" stroke-opacity="null" stroke-width="0" fill="#d3d1ff"/>
  <ellipse stroke="#000" ry="4" rx="4" id="svg_133" cy="578.45458" cx="562.727279" stroke-opacity="null" stroke-width="0" fill="#d3d1ff"/>
  <ellipse stroke="#000" ry="4" rx="4" id="svg_134" cy="578.883894" cx="582.727279" stroke-opacity="null" stroke-width="0" fill="#d3d1ff"/>
  <ellipse stroke="#000" ry="4" rx="4" id="svg_135" cy="578.45458" cx="622.727279" stroke-opacity="null" stroke-width="0" fill="#d3d1ff"/>
  <ellipse stroke="#000" ry="4" rx="4" id="svg_136" cy="578.45458" cx="602.727279" stroke-opacity="null" stroke-width="0" fill="#d3d1ff"/>
  <ellipse stroke="#000" ry="4" rx="4" id="svg_137" cy="578.45458" cx="802.727279" stroke-opacity="null" stroke-width="0" fill="#d3d1ff"/>
  <ellipse stroke="#000" ry="4" rx="4" id="svg_138" cy="578.45458" cx="722.727279" stroke-opacity="null" stroke-width="0" fill="#d3d1ff"/>
  <ellipse stroke="#000" ry="4" rx="4" id="svg_139" cy="578.883893" cx="742.727279" stroke-opacity="null" stroke-width="0" fill="#d3d1ff"/>
  <ellipse stroke="#000" ry="4" rx="4" id="svg_140" cy="578.45458" cx="782.727279" stroke-opacity="null" stroke-width="0" fill="#d3d1ff"/>
  <ellipse stroke="#000" ry="4" rx="4" id="svg_141" cy="578.45458" cx="762.727279" stroke-opacity="null" stroke-width="0" fill="#d3d1ff"/>
  <rect stroke="#000" rx="42" id="svg_10" height="72" width="130" y="529.953149" x="610.454557" stroke-opacity="null" stroke-width="0" fill="#bddcff"/>
  <rect stroke="#000" rx="49" id="svg_153" height="246.665247" width="105.363632" y="262.730133" x="762.454556" fill-opacity="null" stroke-opacity="null" stroke-width="0" fill="#bddcff"/>
  <rect id="svg_154" height="0" width="0.909091" y="401.82104" x="757.909102" fill-opacity="null" stroke-opacity="null" stroke-width="0" stroke="#000" fill="#bddcff"/>
 </g>
</svg>