<svg width="914" height="621" xmlns="http://www.w3.org/2000/svg">
 <!-- Created with Method Draw - http://github.com/duopixel/Method-Draw/ -->
 <g>
  <title>background</title>
  <rect fill="none" id="canvas_background" height="623" width="916" y="-1" x="-1"/>
  <g display="none" overflow="visible" y="0" x="0" height="100%" width="100%" id="canvasGrid">
   <rect fill="url(#gridpattern)" stroke-width="0" y="0" x="0" height="100%" width="100%"/>
  </g>
 </g>
 <g>
  <title>Layer 1</title>
  <rect id="svg_11" height="0" width="3" y="155.953125" x="371" fill-opacity="null" stroke-opacity="null" stroke-width="1.5" stroke="#000" fill="#FFB27C"/>
  <ellipse stroke="#000" ry="4" rx="4" id="svg_75" cy="86.636364" cx="349.999998" stroke-opacity="null" stroke-width="0" fill="#d3d1ff"/>
  <ellipse stroke="#000" ry="4" rx="4" id="svg_76" cy="86.636364" cx="269.545454" stroke-opacity="null" stroke-width="0" fill="#d3d1ff"/>
  <ellipse stroke="#000" ry="4" rx="4" id="svg_77" cy="87.065677" cx="289.999998" stroke-opacity="null" stroke-width="0" fill="#d3d1ff"/>
  <ellipse stroke="#000" ry="4" rx="4" id="svg_78" cy="86.636364" cx="329.999998" stroke-opacity="null" stroke-width="0" fill="#d3d1ff"/>
  <ellipse stroke="#000" ry="4" rx="4" id="svg_79" cy="86.636364" cx="309.999998" stroke-opacity="null" stroke-width="0" fill="#d3d1ff"/>
  <ellipse stroke="#000" ry="4" rx="4" id="svg_80" cy="86.636364" cx="89.999999" stroke-opacity="null" stroke-width="0" fill="#d3d1ff"/>
  <ellipse stroke="#000" ry="4" rx="4" id="svg_81" cy="86.636364" cx="109.999999" stroke-opacity="null" stroke-width="0" fill="#d3d1ff"/>
  <ellipse stroke="#000" ry="4" rx="4" id="svg_82" cy="86.636364" cx="149.999999" stroke-opacity="null" stroke-width="0" fill="#d3d1ff"/>
  <ellipse stroke="#000" ry="4" rx="4" id="svg_83" cy="86.636364" cx="129.999999" stroke-opacity="null" stroke-width="0" fill="#d3d1ff"/>
  <ellipse stroke="#000" ry="4" rx="4" id="svg_84" cy="86.636364" cx="9.999999" stroke-opacity="null" stroke-width="0" fill="#d3d1ff"/>
  <ellipse stroke="#000" ry="4" rx="4" id="svg_85" cy="87.065678" cx="29.999999" stroke-opacity="null" stroke-width="0" fill="#d3d1ff"/>
  <ellipse stroke="#000" ry="4" rx="4" id="svg_86" cy="86.636364" cx="69.999999" stroke-opacity="null" stroke-width="0" fill="#d3d1ff"/>
  <ellipse stroke="#000" ry="4" rx="4" id="svg_87" cy="86.636364" cx="49.999999" stroke-opacity="null" stroke-width="0" fill="#d3d1ff"/>
  <ellipse stroke="#000" ry="4" rx="4" id="svg_101" cy="86.636364" cx="249.999999" stroke-opacity="null" stroke-width="0" fill="#d3d1ff"/>
  <ellipse stroke="#000" ry="4" rx="4" id="svg_102" cy="86.636364" cx="169.999999" stroke-opacity="null" stroke-width="0" fill="#d3d1ff"/>
  <ellipse stroke="#000" ry="4" rx="4" id="svg_103" cy="87.065677" cx="189.999999" stroke-opacity="null" stroke-width="0" fill="#d3d1ff"/>
  <ellipse stroke="#000" ry="4" rx="4" id="svg_104" cy="86.636364" cx="229.999999" stroke-opacity="null" stroke-width="0" fill="#d3d1ff"/>
  <ellipse stroke="#000" ry="4" rx="4" id="svg_105" cy="86.636364" cx="209.999999" stroke-opacity="null" stroke-width="0" fill="#d3d1ff"/>
  <ellipse stroke="#000" ry="4" rx="4" id="svg_106" cy="23" cx="349.999999" stroke-opacity="null" stroke-width="0" fill="#d3d1ff"/>
  <ellipse stroke="#000" ry="4" rx="4" id="svg_107" cy="23" cx="269.545455" stroke-opacity="null" stroke-width="0" fill="#d3d1ff"/>
  <ellipse stroke="#000" ry="4" rx="4" id="svg_108" cy="22.520222" cx="289.999999" stroke-opacity="null" stroke-width="0" fill="#d3d1ff"/>
  <ellipse stroke="#000" ry="4" rx="4" id="svg_109" cy="23" cx="329.999999" stroke-opacity="null" stroke-width="0" fill="#d3d1ff"/>
  <ellipse stroke="#000" ry="4" rx="4" id="svg_110" cy="23" cx="309.999999" stroke-opacity="null" stroke-width="0" fill="#d3d1ff"/>
  <ellipse stroke="#000" ry="4" rx="4" id="svg_111" cy="23" cx="90" stroke-opacity="null" stroke-width="0" fill="#d3d1ff"/>
  <ellipse stroke="#000" ry="4" rx="4" id="svg_112" cy="23" cx="110" stroke-opacity="null" stroke-width="0" fill="#d3d1ff"/>
  <ellipse stroke="#000" ry="4" rx="4" id="svg_113" cy="23" cx="150" stroke-opacity="null" stroke-width="0" fill="#d3d1ff"/>
  <ellipse stroke="#000" ry="4" rx="4" id="svg_114" cy="23" cx="130" stroke-opacity="null" stroke-width="0" fill="#d3d1ff"/>
  <ellipse stroke="#000" ry="4" rx="4" id="svg_115" cy="23" cx="10" stroke-opacity="null" stroke-width="0" fill="#d3d1ff"/>
  <ellipse stroke="#000" ry="4" rx="4" id="svg_116" cy="23.429314" cx="30" stroke-opacity="null" stroke-width="0" fill="#d3d1ff"/>
  <ellipse stroke="#000" ry="4" rx="4" id="svg_117" cy="23" cx="70" stroke-opacity="null" stroke-width="0" fill="#d3d1ff"/>
  <ellipse stroke="#000" ry="4" rx="4" id="svg_118" cy="23" cx="50" stroke-opacity="null" stroke-width="0" fill="#d3d1ff"/>
  <ellipse stroke="#000" ry="4" rx="4" id="svg_119" cy="23" cx="250" stroke-opacity="null" stroke-width="0" fill="#d3d1ff"/>
  <ellipse stroke="#000" ry="4" rx="4" id="svg_120" cy="23" cx="170" stroke-opacity="null" stroke-width="0" fill="#d3d1ff"/>
  <ellipse stroke="#000" ry="4" rx="4" id="svg_121" cy="22.520222" cx="190" stroke-opacity="null" stroke-width="0" fill="#d3d1ff"/>
  <ellipse stroke="#000" ry="4" rx="4" id="svg_122" cy="23" cx="230" stroke-opacity="null" stroke-width="0" fill="#d3d1ff"/>
  <ellipse stroke="#000" ry="4" rx="4" id="svg_123" cy="23" cx="210" stroke-opacity="null" stroke-width="0" fill="#d3d1ff"/>
  <ellipse stroke="#000" ry="4" rx="4" id="svg_124" cy="54.818182" cx="349.999998" stroke-opacity="null" stroke-width="0" fill="#d3d1ff"/>
  <ellipse stroke="#000" ry="4" rx="4" id="svg_125" cy="54.818182" cx="269.545454" stroke-opacity="null" stroke-width="0" fill="#d3d1ff"/>
  <ellipse stroke="#000" ry="4" rx="4" id="svg_126" cy="55.247495" cx="289.999998" stroke-opacity="null" stroke-width="0" fill="#d3d1ff"/>
  <ellipse stroke="#000" ry="4" rx="4" id="svg_127" cy="54.818182" cx="329.999998" stroke-opacity="null" stroke-width="0" fill="#d3d1ff"/>
  <ellipse stroke="#000" ry="4" rx="4" id="svg_128" cy="54.818182" cx="309.999998" stroke-opacity="null" stroke-width="0" fill="#d3d1ff"/>
  <ellipse stroke="#000" ry="4" rx="4" id="svg_129" cy="54.818182" cx="89.999999" stroke-opacity="null" stroke-width="0" fill="#d3d1ff"/>
  <ellipse stroke="#000" ry="4" rx="4" id="svg_130" cy="54.818182" cx="109.999999" stroke-opacity="null" stroke-width="0" fill="#d3d1ff"/>
  <ellipse stroke="#000" ry="4" rx="4" id="svg_131" cy="54.818182" cx="149.999999" stroke-opacity="null" stroke-width="0" fill="#d3d1ff"/>
  <ellipse stroke="#000" ry="4" rx="4" id="svg_132" cy="54.818182" cx="129.999999" stroke-opacity="null" stroke-width="0" fill="#d3d1ff"/>
  <ellipse stroke="#000" ry="4" rx="4" id="svg_133" cy="54.818182" cx="9.999999" stroke-opacity="null" stroke-width="0" fill="#d3d1ff"/>
  <ellipse stroke="#000" ry="4" rx="4" id="svg_134" cy="55.247496" cx="29.999999" stroke-opacity="null" stroke-width="0" fill="#d3d1ff"/>
  <ellipse stroke="#000" ry="4" rx="4" id="svg_135" cy="54.818182" cx="69.999999" stroke-opacity="null" stroke-width="0" fill="#d3d1ff"/>
  <ellipse stroke="#000" ry="4" rx="4" id="svg_136" cy="54.818182" cx="49.999999" stroke-opacity="null" stroke-width="0" fill="#d3d1ff"/>
  <ellipse stroke="#000" ry="4" rx="4" id="svg_137" cy="54.818182" cx="249.999999" stroke-opacity="null" stroke-width="0" fill="#d3d1ff"/>
  <ellipse stroke="#000" ry="4" rx="4" id="svg_138" cy="54.818182" cx="169.999999" stroke-opacity="null" stroke-width="0" fill="#d3d1ff"/>
  <ellipse stroke="#000" ry="4" rx="4" id="svg_139" cy="55.247495" cx="189.999999" stroke-opacity="null" stroke-width="0" fill="#d3d1ff"/>
  <ellipse stroke="#000" ry="4" rx="4" id="svg_140" cy="54.818182" cx="229.999999" stroke-opacity="null" stroke-width="0" fill="#d3d1ff"/>
  <ellipse stroke="#000" ry="4" rx="4" id="svg_141" cy="54.818182" cx="209.999999" stroke-opacity="null" stroke-width="0" fill="#d3d1ff"/>
  <rect stroke="#000" rx="42" id="svg_10" height="72" width="130" y="31.7713" x="296.818198" stroke-opacity="null" stroke-width="0" fill="#bddcff"/>
 </g>
</svg>